<svg width="18" height="20" viewBox="0 0 18 20" fill="none" xmlns="http://www.w3.org/2000/svg">
<path d="M16.7695 9.64534C16.039 8.79229 15.7071 8.05305 15.7071 6.79716V6.37013C15.7071 4.73354 15.3304 3.67907 14.5115 2.62459C13.2493 0.986993 11.1244 0 9.04423 0H8.95577C6.91935 0 4.86106 0.941671 3.577 2.5128C2.71333 3.58842 2.29293 4.68822 2.29293 6.37013V6.79716C2.29293 8.05305 1.98284 8.79229 1.23049 9.64534C0.676907 10.2738 0.5 11.0815 0.5 11.9557C0.5 12.8309 0.787226 13.6598 1.36367 14.3336C2.11602 15.1413 3.17846 15.6569 4.26375 15.7466C5.83505 15.9258 7.40634 15.9933 9.0005 15.9933C10.5937 15.9933 12.165 15.8805 13.7372 15.7466C14.8215 15.6569 15.884 15.1413 16.6363 14.3336C17.2118 13.6598 17.5 12.8309 17.5 11.9557C17.5 11.0815 17.3231 10.2738 16.7695 9.64534Z" fill="#7631FF"/>
<path opacity="0.4" d="M11.0087 17.2285C10.5088 17.1217 7.4626 17.1217 6.96269 17.2285C6.53533 17.3272 6.07318 17.5568 6.07318 18.0604C6.09803 18.5408 6.37929 18.9648 6.76888 19.2337L6.76789 19.2347C7.27178 19.6275 7.86313 19.8773 8.4823 19.9669C8.81226 20.0122 9.14819 20.0102 9.49008 19.9669C10.1083 19.8773 10.6996 19.6275 11.2035 19.2347L11.2025 19.2337C11.5921 18.9648 11.8734 18.5408 11.8982 18.0604C11.8982 17.5568 11.4361 17.3272 11.0087 17.2285Z" fill="#7631FF"/>
</svg>
