<svg width="24" height="24" viewBox="0 0 24 24" fill="none" xmlns="http://www.w3.org/2000/svg">
<path d="M18 9.16797H6C5.72667 9.16797 5.5 8.9413 5.5 8.66797C5.5 8.39464 5.72667 8.16797 6 8.16797H18C18.2733 8.16797 18.5 8.39464 18.5 8.66797C18.5 8.9413 18.2733 9.16797 18 9.16797Z" fill="#777C85"/>
<path d="M16 12.5H8C7.72667 12.5 7.5 12.2733 7.5 12C7.5 11.7267 7.72667 11.5 8 11.5H16C16.2733 11.5 16.5 11.7267 16.5 12C16.5 12.2733 16.2733 12.5 16 12.5Z" fill="#777C85"/>
<path d="M13.3346 15.832H10.668C10.3946 15.832 10.168 15.6054 10.168 15.332C10.168 15.0587 10.3946 14.832 10.668 14.832H13.3346C13.608 14.832 13.8346 15.0587 13.8346 15.332C13.8346 15.6054 13.608 15.832 13.3346 15.832Z" fill="#777C85"/>
</svg>
